name Walk9.mot
datacolumns 19
datarows 12
range 1.38000000 1.43500000
endheader

                time	   L_ground_force_vx	   L_ground_force_vy	   L_ground_force_vz	   L_ground_force_px	   L_ground_force_py	   L_ground_force_pz	   R_ground_force_vx	   R_ground_force_vy	   R_ground_force_vz	   R_ground_force_px	   R_ground_force_py	   R_ground_force_pz	   L_ground_torque_x	   L_ground_torque_y	   L_ground_torque_z	   R_ground_torque_x	   R_ground_torque_y	   R_ground_torque_z	
          1.38000000	          0.00000000	         -0.00000000	         -0.00000000	         -0.00000000	          0.00000000	         -0.00000000	         15.78629074	        687.47247366	        -12.12807613	         -0.14791084	          0.00000000	          0.32224435	          0.00000000	          0.00000000	          0.00000000	          0.00000000	          3.04217701	          0.00000000	
          1.38500000	         -0.00000000	         -0.00000000	          0.00000000	         -0.00000000	          0.00000000	         -0.00000000	         17.92424496	        695.84425897	        -12.72141961	         -0.14591270	          0.00000000	          0.32202299	          0.00000000	          0.00000000	          0.00000000	          0.00000000	          2.93637526	          0.00000000	
          1.39000000	         -0.00000000	         -0.00000000	          0.00000000	          0.00000000	          0.00000000	          0.00000000	         20.07818439	        704.12402914	        -14.17288226	         -0.14396831	          0.00000000	          0.32186048	          0.00000000	          0.00000000	          0.00000000	          0.00000000	          2.75530168	          0.00000000	
          1.39500000	         -0.00000000	          0.00000000	          0.00000000	          0.00000000	          0.00000000	          0.00000000	         22.48564315	        712.24410409	        -16.13684470	         -0.14220071	          0.00000000	          0.32163303	          0.00000000	         -0.00000000	          0.00000000	          0.00000000	          2.43727011	          0.00000000	
          1.40000000	          0.00000000	          0.00000000	         -0.00000000	          0.00000000	          0.00000000	          0.00000000	         25.44291835	        719.90203170	        -17.48256016	         -0.14067087	          0.00000000	          0.32131240	          0.00000000	         -0.00000000	          0.00000000	          0.00000000	          2.09566450	          0.00000000	
          1.40500000	          0.00000000	          0.00000000	         -0.00000000	         -0.00000000	          0.00000000	         -0.00000000	         28.65380788	        727.23123930	        -17.82250335	         -0.13929584	          0.00000000	          0.32108458	          0.00000000	         -0.00000000	          0.00000000	          0.00000000	          1.85794572	          0.00000000	
          1.41000000	          0.00000000	         -0.00000001	          0.00000000	         -0.00000000	          0.00000000	         -0.00000000	         31.58727237	        734.60575902	        -17.58178783	         -0.13800605	          0.00000000	          0.32082868	          0.00000000	          0.00000000	          0.00000000	          0.00000000	          1.76879158	          0.00000000	
          1.41500000	         -0.00000000	         -0.00000007	          0.00000000	         -0.00000000	          0.00000000	         -0.00000000	         34.43119719	        742.00127458	        -17.04568473	         -0.13674926	          0.00000000	          0.32039645	          0.00000000	          0.00000000	          0.00000000	          0.00000000	          1.82608266	          0.00000000	
          1.42000000	         -0.00000001	         -0.00000007	          0.00000001	          0.00000000	          0.00000000	          0.00000000	         37.78826737	        748.62133656	        -16.40211038	         -0.13546820	          0.00000000	          0.32010232	          0.00000000	         -0.00000000	          0.00000000	          0.00000000	          1.85062417	          0.00000000	
          1.42500000	          0.00000000	          0.00000051	         -0.00000001	          0.00000000	          0.00000000	          0.00000000	         41.72415596	        754.50700781	        -15.83231275	         -0.13423555	          0.00000000	          0.32012567	          0.00000000	         -0.00000000	          0.00000000	          0.00000000	          1.78608629	          0.00000000	
          1.43000000	          0.00000006	          0.00000194	         -0.00000009	          0.00000000	          0.00000000	          0.00000000	         46.03455134	        760.43536758	        -15.37742093	         -0.13319535	          0.00000000	          0.32008976	          0.00000000	         -0.00000000	          0.00000000	          0.00000000	          1.72616793	          0.00000000	
          1.43500000	          0.00000011	          0.00000036	         -0.00000013	         -0.00000001	          0.00000000	         -0.00000001	         50.74255761	        766.61253992	        -15.01730532	         -0.13244965	          0.00000000	          0.31979343	          0.00000000	          0.00000000	          0.00000000	          0.00000000	          1.67475859	          0.00000000	
